<?xml version="1.0" standalone="no"?><!-- Generator: Gravit.io --><svg xmlns="http://www.w3.org/2000/svg" xmlns:xlink="http://www.w3.org/1999/xlink" style="isolation:isolate" viewBox="-434.831 574.477 580 300" width="580" height="300"><g id="Group"><g id="Group"><path d=" M -236.376 575.849 L -236.376 623.067 L -173.418 623.067 L -173.418 575.849 L -236.376 575.849 Z " fill="none" vector-effect="non-scaling-stroke" stroke-width="1.186" stroke="rgb(0,0,0)" stroke-linejoin="miter" stroke-linecap="butt" stroke-miterlimit="4"/><path d=" M -126.201 626.961 L -126.201 674.179 L -52.751 674.179 L -52.751 626.961 L -126.201 626.961 Z " fill="none" vector-effect="non-scaling-stroke" stroke-width="1.186" stroke="rgb(0,0,0)" stroke-linejoin="miter" stroke-linecap="butt" stroke-miterlimit="4"/><path d=" M -162.926 679.596 L -162.926 726.814 L -99.968 726.814 L -99.968 679.596 L -162.926 679.596 Z " fill="none" vector-effect="non-scaling-stroke" stroke-width="1.186" stroke="rgb(0,0,0)" stroke-linejoin="miter" stroke-linecap="butt" stroke-miterlimit="4"/><path d=" M -89.476 679.596 L -89.476 726.814 L -57.997 726.814 C -54.839 726.814 -52.751 724.726 -52.751 721.567 L -52.751 679.596 L -89.476 679.596 Z " fill="none" vector-effect="non-scaling-stroke" stroke-width="1.186" stroke="rgb(0,0,0)" stroke-linejoin="miter" stroke-linecap="butt" stroke-miterlimit="4"/></g><g transform="matrix(1,0,0,1,-437.879,702.92)"><text transform="matrix(1,0,0,1,3.496,136.8)" style="font-family:&quot;Arizonia&quot;;font-weight:400;font-size:152px;font-style:normal;fill:#404040;stroke:none;">Morabem</text></g><g id="Group"><path d=" M -132.495 684.442 C -134.364 684.869 -136.292 685.137 -138.295 685.137 C -141.724 685.146 -145.119 684.463 -148.277 683.128 C -145.158 693.466 -144.37 705.475 -146.034 714.473 C -140.232 707.493 -134.823 697.187 -132.495 684.442 Z " fill="rgb(0,150,136)"/><path d=" M -75.89 622.793 C -76.179 621.673 -77.1 620.829 -78.241 620.638 C -80.168 620.308 -82.12 620.137 -84.076 620.127 C -91.067 620.127 -95.991 622.571 -100.31 625.585 C -93.888 633.158 -91.587 642.185 -93.888 651.39 C -96.499 661.453 -104.428 668.658 -114.959 670.778 C -117.823 675.83 -121.673 679.621 -126.167 682.053 C -129.321 705.843 -142.101 719.402 -146.332 723.28 C -146.674 723.593 -147.018 723.902 -147.363 724.195 C -149.413 725.956 -151.414 727.343 -153.315 728.321 C -153.724 728.542 -154.182 728.656 -154.646 728.654 L -154.448 728.648 C -153.963 728.613 -106.037 724.764 -95.439 679.65 L -93.377 670.419 C -87.338 643.288 -84.835 632.057 -76.912 625.816 C -76.004 625.1 -75.604 623.915 -75.89 622.793 Z  M -207.625 606.79 C -204.201 604.628 -200.277 603.384 -196.233 603.18 C -196.195 598.513 -195.228 594.194 -193.35 590.435 C -199.591 587.489 -207.946 585.556 -215.977 585.556 C -217.136 585.556 -218.186 586.241 -218.651 587.302 C -219.117 588.364 -218.911 589.6 -218.127 590.453 C -213.206 595.809 -209.777 602.053 -207.625 606.79 Z  M -158.723 679.478 C -162.079 685.418 -166.766 689.664 -172.294 691.954 C -164.993 697.803 -158.753 708.997 -157.678 724.276 C -157.184 723.92 -156.632 723.546 -155.984 723.134 C -149.705 718.217 -149.118 694.202 -156.066 678.821 C -156.933 679.072 -157.812 679.297 -158.723 679.478 Z " fill="rgb(0,150,136)"/><path d=" M -106.819 627.133 C -104.784 613.939 -110.082 607.073 -115.011 603.606 C -121.617 598.983 -130.244 599.024 -138.599 603.767 C -141.335 602.245 -146.034 600.157 -151.145 600.157 C -155.171 600.145 -159.085 601.486 -162.257 603.966 C -170.933 610.56 -170.405 621.129 -169.54 626.178 C -176.809 632.568 -179.49 641.495 -176.695 650.435 C -173.889 658.851 -167.067 664.228 -157.83 665.396 C -153.802 674.259 -146.764 679.3 -138.295 679.3 C -129.841 679.3 -122.814 674.282 -118.787 665.454 C -109.103 664.517 -101.811 658.699 -99.539 649.929 C -97.468 641.635 -99.983 633.786 -106.819 627.133 Z  M -137.711 649.804 C -143.841 649.804 -148.809 644.573 -148.809 638.122 C -148.809 631.671 -143.841 626.441 -137.711 626.441 C -131.581 626.441 -126.614 631.671 -126.614 638.122 C -126.614 644.573 -131.584 649.804 -137.711 649.804 Z " fill="rgb(117,1,158)"/><path d=" M -161.714 670.641 C -169.345 668.929 -175.457 664.639 -179.35 658.375 C -179.968 658.495 -180.595 658.558 -181.225 658.565 C -187.358 658.565 -192.322 653.308 -192.322 646.883 C -192.322 640.847 -187.924 635.9 -182.308 635.319 C -180.99 631.104 -178.733 627.243 -175.705 624.029 C -176.184 618.623 -175.402 613.62 -173.533 609.275 C -176.468 609.78 -179.432 610.843 -182.402 612.528 C -185.331 610.884 -189.901 608.919 -194.951 608.919 C -198.977 608.906 -202.891 610.247 -206.063 612.727 C -214.739 619.321 -214.21 629.89 -213.346 634.939 C -220.615 641.329 -223.296 650.256 -220.501 659.199 C -217.694 667.615 -210.872 672.992 -201.635 674.157 C -197.608 683.02 -190.57 688.061 -182.101 688.061 C -173.638 688.061 -166.6 683.023 -162.572 674.171 C -161.6 674.06 -160.665 673.897 -159.754 673.71 C -160.446 672.74 -161.106 671.724 -161.714 670.641 Z  M -169.835 603.078 C -169.786 603.078 -169.748 603.087 -169.701 603.087 C -168.557 601.704 -167.263 600.452 -165.843 599.354 C -161.648 596.074 -156.471 594.299 -151.145 594.317 C -146.382 594.317 -142.01 595.692 -138.622 597.222 C -135.45 595.758 -132.056 594.832 -128.579 594.483 C -129.984 591.093 -132.262 588.269 -135.454 586.084 C -141.89 581.581 -150.733 581.391 -159.281 586.213 C -161.775 584.755 -166.31 582.635 -171.588 582.635 C -175.614 582.622 -179.528 583.964 -182.7 586.443 C -189.022 591.25 -190.45 598.16 -190.427 603.513 C -187.431 604.027 -184.691 604.947 -182.419 605.975 C -178.24 604.05 -174.02 603.078 -169.835 603.078 Z " fill="rgb(117,1,158)"/></g></g><g id="Group"><g transform="matrix(1,0,0,1,-338.562,1083.236)"><text transform="matrix(1,0,0,1,3.496,136.8)" style="font-family:&quot;Arizonia&quot;;font-weight:400;font-size:152px;font-style:normal;fill:#404040;stroke:none;">Morabem</text></g><g id="Group"><g id="Group"><path d=" M -597.809 1094.552 L -597.809 1146.27 L -528.852 1146.27 L -528.852 1094.552 L -597.809 1094.552 Z " fill="none" vector-effect="non-scaling-stroke" stroke-width="1.299" stroke="rgb(0,0,0)" stroke-linejoin="miter" stroke-linecap="butt" stroke-miterlimit="4"/><path d=" M -477.134 1150.536 L -477.134 1202.254 L -396.683 1202.254 L -396.683 1150.536 L -477.134 1150.536 Z " fill="none" vector-effect="non-scaling-stroke" stroke-width="1.299" stroke="rgb(0,0,0)" stroke-linejoin="miter" stroke-linecap="butt" stroke-miterlimit="4"/><path d=" M -517.359 1208.187 L -517.359 1259.905 L -448.401 1259.905 L -448.401 1208.187 L -517.359 1208.187 Z " fill="none" vector-effect="non-scaling-stroke" stroke-width="1.299" stroke="rgb(0,0,0)" stroke-linejoin="miter" stroke-linecap="butt" stroke-miterlimit="4"/><path d=" M -436.908 1208.187 L -436.908 1259.905 L -402.43 1259.905 C -398.97 1259.905 -396.683 1257.618 -396.683 1254.159 L -396.683 1208.187 L -436.908 1208.187 Z " fill="none" vector-effect="non-scaling-stroke" stroke-width="1.299" stroke="rgb(0,0,0)" stroke-linejoin="miter" stroke-linecap="butt" stroke-miterlimit="4"/></g><g id="Group"><path d=" M -484.029 1213.495 C -486.076 1213.963 -488.187 1214.257 -490.381 1214.257 C -494.137 1214.266 -497.855 1213.518 -501.314 1212.056 C -497.898 1223.38 -497.034 1236.533 -498.858 1246.388 C -492.502 1238.743 -486.578 1227.455 -484.029 1213.495 Z " fill="rgb(0,150,136)"/><path d=" M -422.028 1145.971 C -422.344 1144.744 -423.353 1143.819 -424.603 1143.61 C -426.714 1143.248 -428.852 1143.061 -430.994 1143.05 C -438.652 1143.05 -444.045 1145.728 -448.776 1149.029 C -441.742 1157.323 -439.221 1167.21 -441.742 1177.292 C -444.601 1188.315 -453.286 1196.206 -464.82 1198.529 C -467.958 1204.062 -472.174 1208.214 -477.097 1210.879 C -480.552 1236.936 -494.549 1251.787 -499.184 1256.035 C -499.558 1256.377 -499.936 1256.717 -500.313 1257.036 C -502.559 1258.965 -504.75 1260.485 -506.832 1261.556 C -507.28 1261.798 -507.782 1261.924 -508.291 1261.921 L -508.073 1261.914 C -507.542 1261.876 -455.048 1257.66 -443.44 1208.246 L -441.182 1198.135 C -434.567 1168.419 -431.826 1156.117 -423.147 1149.281 C -422.153 1148.498 -421.714 1147.199 -422.028 1145.971 Z  M -566.319 1128.442 C -562.568 1126.074 -558.27 1124.712 -553.84 1124.488 C -553.799 1119.377 -552.74 1114.646 -550.683 1110.529 C -557.519 1107.301 -566.671 1105.184 -575.467 1105.184 C -576.736 1105.184 -577.886 1105.935 -578.396 1107.097 C -578.906 1108.26 -578.681 1109.614 -577.821 1110.548 C -572.431 1116.415 -568.676 1123.253 -566.319 1128.442 Z  M -512.756 1208.058 C -516.432 1214.564 -521.565 1219.215 -527.621 1221.723 C -519.624 1228.13 -512.788 1240.39 -511.611 1257.126 C -511.07 1256.736 -510.466 1256.326 -509.756 1255.875 C -502.879 1250.489 -502.236 1224.186 -509.845 1207.338 C -510.795 1207.613 -511.758 1207.859 -512.756 1208.058 Z " fill="rgb(0,150,136)"/><path d=" M -455.905 1150.724 C -453.676 1136.272 -459.478 1128.752 -464.878 1124.955 C -472.113 1119.892 -481.562 1119.936 -490.714 1125.131 C -493.711 1123.464 -498.858 1121.177 -504.456 1121.177 C -508.866 1121.163 -513.152 1122.632 -516.627 1125.349 C -526.13 1132.571 -525.551 1144.147 -524.604 1149.678 C -532.566 1156.677 -535.502 1166.455 -532.441 1176.246 C -529.367 1185.465 -521.895 1191.354 -511.777 1192.633 C -507.366 1202.342 -499.657 1207.863 -490.381 1207.863 C -481.121 1207.863 -473.425 1202.367 -469.014 1192.697 C -458.407 1191.671 -450.42 1185.299 -447.931 1175.693 C -445.663 1166.609 -448.417 1158.011 -455.905 1150.724 Z  M -489.741 1175.556 C -496.456 1175.556 -501.897 1169.827 -501.897 1162.761 C -501.897 1155.695 -496.456 1149.966 -489.741 1149.966 C -483.027 1149.966 -477.586 1155.695 -477.586 1162.761 C -477.586 1169.827 -483.031 1175.556 -489.741 1175.556 Z " fill="rgb(117,1,158)"/><path d=" M -516.032 1198.378 C -524.39 1196.504 -531.085 1191.805 -535.349 1184.944 C -536.026 1185.075 -536.713 1185.145 -537.402 1185.152 C -544.12 1185.152 -549.557 1179.394 -549.557 1172.357 C -549.557 1165.745 -544.74 1160.326 -538.589 1159.69 C -537.146 1155.073 -534.673 1150.845 -531.357 1147.324 C -531.881 1141.403 -531.024 1135.923 -528.977 1131.164 C -532.192 1131.717 -535.438 1132.881 -538.691 1134.727 C -541.9 1132.926 -546.906 1130.774 -552.436 1130.774 C -556.846 1130.759 -561.133 1132.229 -564.607 1134.945 C -574.111 1142.167 -573.532 1153.744 -572.585 1159.274 C -580.547 1166.273 -583.483 1176.051 -580.422 1185.846 C -577.348 1195.065 -569.876 1200.953 -559.758 1202.23 C -555.347 1211.938 -547.638 1217.459 -538.362 1217.459 C -529.092 1217.459 -521.383 1211.941 -516.972 1202.246 C -515.907 1202.124 -514.883 1201.945 -513.885 1201.74 C -514.643 1200.678 -515.366 1199.565 -516.032 1198.378 Z  M -524.927 1124.376 C -524.873 1124.376 -524.831 1124.386 -524.78 1124.386 C -523.527 1122.871 -522.11 1121.5 -520.555 1120.298 C -515.959 1116.704 -510.289 1114.761 -504.456 1114.78 C -499.238 1114.78 -494.45 1116.287 -490.739 1117.963 C -487.265 1116.358 -483.547 1115.344 -479.739 1114.962 C -481.278 1111.249 -483.773 1108.155 -487.269 1105.763 C -494.319 1100.83 -504.004 1100.622 -513.367 1105.904 C -516.099 1104.307 -521.066 1101.985 -526.847 1101.985 C -531.257 1101.971 -535.543 1103.44 -539.018 1106.156 C -545.943 1111.421 -547.507 1118.989 -547.481 1124.853 C -544.2 1125.416 -541.199 1126.423 -538.711 1127.549 C -534.133 1125.441 -529.511 1124.376 -524.927 1124.376 Z " fill="rgb(117,1,158)"/></g></g></g></svg>